<?xml version="1.0" encoding="UTF-8" standalone="no"?>
<!DOCTYPE svg PUBLIC "-//W3C//DTD SVG 1.1//EN"
 "http://www.w3.org/Graphics/SVG/1.1/DTD/svg11.dtd">
<!-- Generated by graphviz version 2.38.0 (20140413.2041)
 -->
<!-- Title: app Pages: 1 -->
<svg width="294pt" height="305pt"
 viewBox="0.00 0.00 293.99 305.00" xmlns="http://www.w3.org/2000/svg" xmlns:xlink="http://www.w3.org/1999/xlink">
<g id="graph0" class="graph" transform="scale(1 1) rotate(0) translate(4 301)">
<title>app</title>
<polygon fill="white" stroke="none" points="-4,4 -4,-301 289.99,-301 289.99,4 -4,4"/>
<!-- actions -->
<g id="node1" class="node"><title>actions</title>
<ellipse fill="none" stroke="black" cx="117.197" cy="-279" rx="35.9954" ry="18"/>
<text text-anchor="middle" x="117.197" y="-275.3" font-family="Times,serif" font-size="14.00">actions</text>
</g>
<!-- states -->
<g id="node2" class="node"><title>states</title>
<ellipse fill="none" stroke="black" cx="117.197" cy="-192" rx="30.5947" ry="18"/>
<text text-anchor="middle" x="117.197" y="-188.3" font-family="Times,serif" font-size="14.00">states</text>
</g>
<!-- actions&#45;&gt;states -->
<g id="edge1" class="edge"><title>actions&#45;&gt;states</title>
<path fill="none" stroke="black" d="M117.197,-260.799C117.197,-249.163 117.197,-233.548 117.197,-220.237"/>
<polygon fill="black" stroke="black" points="120.697,-220.175 117.197,-210.175 113.697,-220.175 120.697,-220.175"/>
<text text-anchor="middle" x="140.197" y="-231.8" font-family="Times,serif" font-size="14.00">update()</text>
</g>
<!-- models -->
<g id="node3" class="node"><title>models</title>
<ellipse fill="none" stroke="black" cx="71.1972" cy="-105" rx="36.2938" ry="18"/>
<text text-anchor="middle" x="71.1972" y="-101.3" font-family="Times,serif" font-size="14.00">models</text>
</g>
<!-- states&#45;&gt;models -->
<g id="edge2" class="edge"><title>states&#45;&gt;models</title>
<path fill="none" stroke="black" d="M108.328,-174.611C101.752,-162.46 92.6602,-145.66 85.1192,-131.725"/>
<polygon fill="black" stroke="black" points="88.0339,-129.757 80.1962,-122.629 81.8776,-133.089 88.0339,-129.757"/>
</g>
<!-- effects -->
<g id="node4" class="node"><title>effects</title>
<ellipse fill="none" stroke="black" cx="160.197" cy="-105" rx="34.394" ry="18"/>
<text text-anchor="middle" x="160.197" y="-101.3" font-family="Times,serif" font-size="14.00">effects</text>
</g>
<!-- states&#45;&gt;effects -->
<g id="edge3" class="edge"><title>states&#45;&gt;effects</title>
<path fill="none" stroke="black" d="M125.488,-174.611C131.635,-162.46 140.134,-145.66 147.183,-131.725"/>
<polygon fill="black" stroke="black" points="150.394,-133.132 151.785,-122.629 144.148,-129.972 150.394,-133.132"/>
</g>
<!-- views -->
<g id="node5" class="node"><title>views</title>
<ellipse fill="none" stroke="black" cx="31.1972" cy="-18" rx="31.3957" ry="18"/>
<text text-anchor="middle" x="31.1972" y="-14.3" font-family="Times,serif" font-size="14.00">views</text>
</g>
<!-- models&#45;&gt;views -->
<g id="edge4" class="edge"><title>models&#45;&gt;views</title>
<path fill="none" stroke="black" d="M63.2945,-87.2067C57.615,-75.1377 49.8506,-58.6384 43.3811,-44.8906"/>
<polygon fill="black" stroke="black" points="46.3723,-43.027 38.9474,-35.4692 40.0386,-46.0077 46.3723,-43.027"/>
<text text-anchor="middle" x="72.1972" y="-57.8" font-family="Times,serif" font-size="14.00">view()</text>
</g>
<!-- effectActionsSources -->
<g id="node6" class="node"><title>effectActionsSources</title>
<ellipse fill="none" stroke="black" cx="200.197" cy="-18" rx="85.5853" ry="18"/>
<text text-anchor="middle" x="200.197" y="-14.3" font-family="Times,serif" font-size="14.00">effectActionsSources</text>
</g>
<!-- effects&#45;&gt;effectActionsSources -->
<g id="edge6" class="edge"><title>effects&#45;&gt;effectActionsSources</title>
<path fill="none" stroke="black" d="M166.295,-87.0824C169.994,-77.2766 174.994,-64.7766 180.197,-54 181.627,-51.0379 183.207,-47.9837 184.832,-44.9711"/>
<polygon fill="black" stroke="black" points="187.916,-46.6277 189.743,-36.1916 181.806,-43.2103 187.916,-46.6277"/>
<text text-anchor="middle" x="194.197" y="-57.8" font-family="Times,serif" font-size="14.00">run()</text>
</g>
<!-- views&#45;&gt;actions -->
<g id="edge5" class="edge"><title>views&#45;&gt;actions</title>
<path fill="none" stroke="black" d="M27.4808,-35.8728C22.4407,-62.6072 15.9113,-115.79 33.1972,-156 49.2074,-193.243 77.3519,-230.88 96.6156,-254.303"/>
<polygon fill="black" stroke="black" points="94.1719,-256.837 103.272,-262.263 99.5417,-252.346 94.1719,-256.837"/>
<text text-anchor="middle" x="60.6972" y="-144.8" font-family="Times,serif" font-size="14.00">dispatch()</text>
</g>
<!-- effectActionsSources&#45;&gt;actions -->
<g id="edge7" class="edge"><title>effectActionsSources&#45;&gt;actions</title>
<path fill="none" stroke="black" d="M204.964,-36.3142C206.287,-41.9124 207.54,-48.1778 208.197,-54 208.945,-60.6246 208.505,-62.3404 208.197,-69 204.531,-148.367 213.733,-178.604 167.197,-243 162.632,-249.318 156.562,-254.895 150.228,-259.635"/>
<polygon fill="black" stroke="black" points="147.825,-257.038 141.546,-265.571 151.776,-262.816 147.825,-257.038"/>
</g>
</g>
</svg>
