<?xml version="1.0" encoding="UTF-8" standalone="no"?>
<!DOCTYPE svg PUBLIC "-//W3C//DTD SVG 1.1//EN"
 "http://www.w3.org/Graphics/SVG/1.1/DTD/svg11.dtd">
<!-- Generated by graphviz version 2.38.0 (20140413.2041)
 -->
<!-- Title: app Pages: 1 -->
<svg width="275pt" height="305pt"
 viewBox="0.00 0.00 275.39 305.00" xmlns="http://www.w3.org/2000/svg" xmlns:xlink="http://www.w3.org/1999/xlink">
<g id="graph0" class="graph" transform="scale(1 1) rotate(0) translate(4 301)">
<title>app</title>
<polygon fill="white" stroke="none" points="-4,4 -4,-301 271.39,-301 271.39,4 -4,4"/>
<!-- actions -->
<g id="node1" class="node"><title>actions</title>
<ellipse fill="none" stroke="black" cx="120.197" cy="-279" rx="35.9954" ry="18"/>
<text text-anchor="middle" x="120.197" y="-275.3" font-family="Times,serif" font-size="14.00">actions</text>
</g>
<!-- states -->
<g id="node2" class="node"><title>states</title>
<ellipse fill="none" stroke="black" cx="120.197" cy="-192" rx="30.5947" ry="18"/>
<text text-anchor="middle" x="120.197" y="-188.3" font-family="Times,serif" font-size="14.00">states</text>
</g>
<!-- actions&#45;&gt;states -->
<g id="edge1" class="edge"><title>actions&#45;&gt;states</title>
<path fill="none" stroke="black" d="M120.197,-260.799C120.197,-249.163 120.197,-233.548 120.197,-220.237"/>
<polygon fill="black" stroke="black" points="123.697,-220.175 120.197,-210.175 116.697,-220.175 123.697,-220.175"/>
<text text-anchor="middle" x="143.197" y="-231.8" font-family="Times,serif" font-size="14.00">update()</text>
</g>
<!-- models -->
<g id="node3" class="node"><title>models</title>
<ellipse fill="none" stroke="black" cx="74.1972" cy="-105" rx="36.2938" ry="18"/>
<text text-anchor="middle" x="74.1972" y="-101.3" font-family="Times,serif" font-size="14.00">models</text>
</g>
<!-- states&#45;&gt;models -->
<g id="edge2" class="edge"><title>states&#45;&gt;models</title>
<path fill="none" stroke="black" d="M111.328,-174.611C104.752,-162.46 95.6602,-145.66 88.1192,-131.725"/>
<polygon fill="black" stroke="black" points="91.0339,-129.757 83.1962,-122.629 84.8776,-133.089 91.0339,-129.757"/>
</g>
<!-- effects -->
<g id="node4" class="node"><title>effects</title>
<ellipse fill="none" stroke="black" cx="163.197" cy="-105" rx="34.394" ry="18"/>
<text text-anchor="middle" x="163.197" y="-101.3" font-family="Times,serif" font-size="14.00">effects</text>
</g>
<!-- states&#45;&gt;effects -->
<g id="edge3" class="edge"><title>states&#45;&gt;effects</title>
<path fill="none" stroke="black" d="M128.488,-174.611C134.635,-162.46 143.134,-145.66 150.183,-131.725"/>
<polygon fill="black" stroke="black" points="153.394,-133.132 154.785,-122.629 147.148,-129.972 153.394,-133.132"/>
</g>
<!-- views -->
<g id="node5" class="node"><title>views</title>
<ellipse fill="none" stroke="black" cx="31.1972" cy="-18" rx="31.3957" ry="18"/>
<text text-anchor="middle" x="31.1972" y="-14.3" font-family="Times,serif" font-size="14.00">views</text>
</g>
<!-- models&#45;&gt;views -->
<g id="edge4" class="edge"><title>models&#45;&gt;views</title>
<path fill="none" stroke="black" d="M65.7018,-87.2067C59.537,-75.0205 51.0873,-58.3176 44.0927,-44.491"/>
<polygon fill="black" stroke="black" points="47.1659,-42.8124 39.5287,-35.4692 40.9197,-45.9723 47.1659,-42.8124"/>
<text text-anchor="middle" x="74.1972" y="-57.8" font-family="Times,serif" font-size="14.00">view()</text>
</g>
<!-- effectActionStreams -->
<g id="node6" class="node"><title>effectActionStreams</title>
<ellipse fill="none" stroke="black" cx="184.197" cy="-18" rx="83.3857" ry="18"/>
<text text-anchor="middle" x="184.197" y="-14.3" font-family="Times,serif" font-size="14.00">effectActionStreams</text>
</g>
<!-- effects&#45;&gt;effectActionStreams -->
<g id="edge6" class="edge"><title>effects&#45;&gt;effectActionStreams</title>
<path fill="none" stroke="black" d="M167.447,-86.799C170.322,-75.1626 174.18,-59.5479 177.468,-46.2368"/>
<polygon fill="black" stroke="black" points="180.953,-46.723 179.954,-36.1754 174.158,-45.0441 180.953,-46.723"/>
<text text-anchor="middle" x="189.197" y="-57.8" font-family="Times,serif" font-size="14.00">run()</text>
</g>
<!-- views&#45;&gt;actions -->
<g id="edge5" class="edge"><title>views&#45;&gt;actions</title>
<path fill="none" stroke="black" d="M27.9889,-36.3056C23.8319,-63.1721 18.9956,-115.986 36.1972,-156 52.2074,-193.243 80.3519,-230.88 99.6156,-254.303"/>
<polygon fill="black" stroke="black" points="97.1719,-256.837 106.272,-262.263 102.542,-252.346 97.1719,-256.837"/>
<text text-anchor="middle" x="63.6972" y="-144.8" font-family="Times,serif" font-size="14.00">dispatch()</text>
</g>
<!-- effectActionStreams&#45;&gt;actions -->
<g id="edge7" class="edge"><title>effectActionStreams&#45;&gt;actions</title>
<path fill="none" stroke="black" d="M198.06,-35.7978C201.77,-41.2687 205.28,-47.5913 207.197,-54 215.988,-83.3832 210.932,-92.6977 206.197,-123 197.602,-178.014 202.811,-197.869 170.197,-243 165.632,-249.318 159.562,-254.895 153.228,-259.635"/>
<polygon fill="black" stroke="black" points="150.825,-257.038 144.546,-265.571 154.776,-262.816 150.825,-257.038"/>
</g>
</g>
</svg>
