<?xml version="1.0" encoding="UTF-8" standalone="no"?>
<!DOCTYPE svg PUBLIC "-//W3C//DTD SVG 1.1//EN"
 "http://www.w3.org/Graphics/SVG/1.1/DTD/svg11.dtd">
<!-- Generated by graphviz version 2.38.0 (20140413.2041)
 -->
<!-- Title: app Pages: 1 -->
<svg width="275pt" height="392pt"
 viewBox="0.00 0.00 275.20 392.00" xmlns="http://www.w3.org/2000/svg" xmlns:xlink="http://www.w3.org/1999/xlink">
<g id="graph0" class="graph" transform="scale(1 1) rotate(0) translate(4 388)">
<title>app</title>
<polygon fill="white" stroke="none" points="-4,4 -4,-388 271.197,-388 271.197,4 -4,4"/>
<!-- nextActions -->
<g id="node1" class="node"><title>nextActions</title>
<ellipse fill="none" stroke="black" cx="114.197" cy="-366" rx="53.0913" ry="18"/>
<text text-anchor="middle" x="114.197" y="-362.3" font-family="Times,serif" font-size="14.00">nextActions</text>
</g>
<!-- actions -->
<g id="node2" class="node"><title>actions</title>
<ellipse fill="none" stroke="black" cx="114.197" cy="-279" rx="35.9954" ry="18"/>
<text text-anchor="middle" x="114.197" y="-275.3" font-family="Times,serif" font-size="14.00">actions</text>
</g>
<!-- nextActions&#45;&gt;actions -->
<g id="edge1" class="edge"><title>nextActions&#45;&gt;actions</title>
<path fill="none" stroke="black" d="M114.197,-347.799C114.197,-336.163 114.197,-320.548 114.197,-307.237"/>
<polygon fill="black" stroke="black" points="117.697,-307.175 114.197,-297.175 110.697,-307.175 117.697,-307.175"/>
<text text-anchor="middle" x="165.197" y="-318.8" font-family="Times,serif" font-size="14.00">process.nextTick()</text>
</g>
<!-- states -->
<g id="node3" class="node"><title>states</title>
<ellipse fill="none" stroke="black" cx="114.197" cy="-192" rx="30.5947" ry="18"/>
<text text-anchor="middle" x="114.197" y="-188.3" font-family="Times,serif" font-size="14.00">states</text>
</g>
<!-- actions&#45;&gt;states -->
<g id="edge2" class="edge"><title>actions&#45;&gt;states</title>
<path fill="none" stroke="black" d="M114.197,-260.799C114.197,-249.163 114.197,-233.548 114.197,-220.237"/>
<polygon fill="black" stroke="black" points="117.697,-220.175 114.197,-210.175 110.697,-220.175 117.697,-220.175"/>
<text text-anchor="middle" x="137.197" y="-231.8" font-family="Times,serif" font-size="14.00">update()</text>
</g>
<!-- models -->
<g id="node4" class="node"><title>models</title>
<ellipse fill="none" stroke="black" cx="72.1972" cy="-105" rx="36.2938" ry="18"/>
<text text-anchor="middle" x="72.1972" y="-101.3" font-family="Times,serif" font-size="14.00">models</text>
</g>
<!-- states&#45;&gt;models -->
<g id="edge3" class="edge"><title>states&#45;&gt;models</title>
<path fill="none" stroke="black" d="M92.6281,-179.164C84.322,-173.369 75.7436,-165.562 71.1972,-156 67.8654,-148.992 66.9818,-140.783 67.2432,-133.066"/>
<polygon fill="black" stroke="black" points="70.7375,-133.289 68.1869,-123.006 63.7681,-132.635 70.7375,-133.289"/>
<text text-anchor="middle" x="103.197" y="-144.8" font-family="Times,serif" font-size="14.00">state.model</text>
</g>
<!-- effects -->
<g id="node5" class="node"><title>effects</title>
<ellipse fill="none" stroke="black" cx="166.197" cy="-105" rx="34.394" ry="18"/>
<text text-anchor="middle" x="166.197" y="-101.3" font-family="Times,serif" font-size="14.00">effects</text>
</g>
<!-- states&#45;&gt;effects -->
<g id="edge4" class="edge"><title>states&#45;&gt;effects</title>
<path fill="none" stroke="black" d="M124.223,-174.611C131.777,-162.264 142.267,-145.117 150.87,-131.053"/>
<polygon fill="black" stroke="black" points="153.969,-132.695 156.202,-122.339 147.998,-129.042 153.969,-132.695"/>
<text text-anchor="middle" x="174.197" y="-144.8" font-family="Times,serif" font-size="14.00">state.effect</text>
</g>
<!-- views -->
<g id="node6" class="node"><title>views</title>
<ellipse fill="none" stroke="black" cx="31.1972" cy="-18" rx="31.3957" ry="18"/>
<text text-anchor="middle" x="31.1972" y="-14.3" font-family="Times,serif" font-size="14.00">views</text>
</g>
<!-- models&#45;&gt;views -->
<g id="edge5" class="edge"><title>models&#45;&gt;views</title>
<path fill="none" stroke="black" d="M64.097,-87.2067C58.2189,-75.0205 50.1622,-58.3176 43.4929,-44.491"/>
<polygon fill="black" stroke="black" points="46.6382,-42.9555 39.1412,-35.4692 40.3333,-45.9967 46.6382,-42.9555"/>
<text text-anchor="middle" x="72.1972" y="-57.8" font-family="Times,serif" font-size="14.00">view()</text>
</g>
<!-- nextActionStreams -->
<g id="node7" class="node"><title>nextActionStreams</title>
<ellipse fill="none" stroke="black" cx="181.197" cy="-18" rx="78.7863" ry="18"/>
<text text-anchor="middle" x="181.197" y="-14.3" font-family="Times,serif" font-size="14.00">nextActionStreams</text>
</g>
<!-- effects&#45;&gt;nextActionStreams -->
<g id="edge7" class="edge"><title>effects&#45;&gt;nextActionStreams</title>
<path fill="none" stroke="black" d="M169.233,-86.799C171.286,-75.1626 174.042,-59.5479 176.391,-46.2368"/>
<polygon fill="black" stroke="black" points="179.875,-46.6316 178.166,-36.1754 172.982,-45.415 179.875,-46.6316"/>
<text text-anchor="middle" x="189.197" y="-57.8" font-family="Times,serif" font-size="14.00">run()</text>
</g>
<!-- views&#45;&gt;nextActions -->
<g id="edge6" class="edge"><title>views&#45;&gt;nextActions</title>
<path fill="none" stroke="black" d="M23.9199,-35.5754C17.1816,-52.4517 8.19723,-79.5398 8.19723,-104 8.19723,-280 8.19723,-280 8.19723,-280 8.19723,-312.992 39.837,-335.306 68.5443,-348.761"/>
<polygon fill="black" stroke="black" points="67.1571,-351.975 77.718,-352.821 69.9899,-345.574 67.1571,-351.975"/>
<text text-anchor="middle" x="35.6972" y="-188.3" font-family="Times,serif" font-size="14.00">dispatch()</text>
</g>
<!-- nextActionStreams&#45;&gt;nextActions -->
<g id="edge8" class="edge"><title>nextActionStreams&#45;&gt;nextActions</title>
<path fill="none" stroke="black" d="M198.749,-35.7961C213.501,-51.7917 232.197,-77.3254 232.197,-104 232.197,-280 232.197,-280 232.197,-280 232.197,-303.077 234.088,-313.266 218.197,-330 206.134,-342.702 189.319,-350.795 172.722,-355.951"/>
<polygon fill="black" stroke="black" points="171.704,-352.601 163.013,-358.66 173.586,-359.344 171.704,-352.601"/>
<text text-anchor="middle" x="249.697" y="-188.3" font-family="Times,serif" font-size="14.00">flatten</text>
</g>
</g>
</svg>
